<mxfile host="65bd71144e">
    <diagram id="3j0UWYNURK1_8b1bWX5X" name="Page-1">
        <mxGraphModel dx="1198" dy="749" grid="1" gridSize="10" guides="1" tooltips="1" connect="1" arrows="1" fold="1" page="1" pageScale="1" pageWidth="850" pageHeight="1100" math="0" shadow="0">
            <root>
                <mxCell id="0"/>
                <mxCell id="1" parent="0"/>
                <mxCell id="2" value="" style="shape=image;verticalLabelPosition=bottom;labelBackgroundColor=#ffffff;verticalAlign=top;aspect=fixed;imageAspect=0;image=https://kazlauskas.dev/assets/images/strategy-0152b9646caf1afeec804979c3cdc3db.png;" vertex="1" parent="1">
                    <mxGeometry x="10" y="10" width="440" height="370" as="geometry"/>
                </mxCell>
                <mxCell id="3" value="" style="shape=image;verticalLabelPosition=bottom;labelBackgroundColor=#ffffff;verticalAlign=top;aspect=fixed;imageAspect=0;image=https://refactoring.guru/images/patterns/diagrams/strategy/solution.png;" vertex="1" parent="1">
                    <mxGeometry x="240" y="430" width="520" height="255" as="geometry"/>
                </mxCell>
            </root>
        </mxGraphModel>
    </diagram>
</mxfile>